<?xml version="1.0" standalone="no"?>
<!DOCTYPE svg PUBLIC "-//W3C//DTD SVG 20010904//EN"
 "http://www.w3.org/TR/2001/REC-SVG-20010904/DTD/svg10.dtd">
<svg version="1.0" xmlns="http://www.w3.org/2000/svg"
 width="900.000000pt" height="900.000000pt" viewBox="0 0 900.000000 900.000000"
 preserveAspectRatio="xMidYMid meet">

<g transform="translate(0.000000,900.000000) scale(0.100000,-0.100000)"
fill="#000000" stroke="none">
<path d="M5808 7795 c3 -5 17 -26 30 -45 23 -34 69 -129 77 -160 7 -29 48
-160 56 -178 29 -71 51 -213 51 -332 1 -175 -32 -276 -125 -388 -39 -46 -124
-122 -137 -122 -5 0 -11 15 -15 33 -4 17 -13 50 -20 72 -14 40 -48 150 -165
530 -34 110 -67 218 -75 240 -7 22 -21 66 -31 98 -10 31 -22 57 -27 57 -4 0
-83 -23 -175 -51 -92 -28 -196 -59 -232 -69 -57 -16 -486 -145 -565 -170 -16
-5 -77 -24 -135 -41 -58 -17 -116 -35 -130 -39 -41 -14 -244 -75 -410 -124
-85 -25 -175 -53 -200 -61 -25 -8 -205 -62 -400 -120 -195 -58 -373 -112 -395
-119 -22 -7 -67 -21 -100 -31 -33 -10 -78 -23 -100 -31 -22 -7 -87 -26 -145
-43 -156 -46 -211 -62 -255 -76 -22 -7 -74 -23 -115 -35 -152 -45 -143 -38
-120 -95 5 -11 18 -54 30 -95 12 -41 41 -138 65 -215 24 -77 58 -187 76 -245
17 -58 51 -166 75 -240 23 -74 57 -182 74 -240 39 -128 65 -211 97 -310 32
-100 46 -145 83 -270 18 -58 41 -132 52 -165 11 -33 35 -112 54 -176 18 -64
47 -157 63 -205 15 -49 39 -123 51 -164 12 -41 38 -122 56 -180 19 -57 34
-112 34 -121 0 -10 5 -21 10 -24 6 -3 10 -15 10 -26 0 -10 4 -27 9 -37 6 -9
28 -78 50 -152 71 -239 122 -404 131 -425 5 -11 18 -54 30 -95 29 -100 47
-157 81 -265 15 -49 48 -156 73 -237 106 -341 139 -449 173 -553 19 -60 36
-117 38 -125 2 -8 4 -16 4 -17 1 -2 18 4 39 12 20 8 78 26 127 41 93 27 150
44 233 68 26 8 153 46 282 86 129 40 256 78 283 86 47 14 114 34 197 60 25 7
90 27 145 43 55 17 154 46 220 67 66 20 134 40 150 44 17 5 98 29 180 55 83
25 202 61 265 80 63 18 198 59 300 90 203 62 255 78 315 95 22 6 51 15 65 20
14 5 59 18 100 30 41 12 118 35 170 51 52 16 118 35 145 44 28 8 92 28 144 45
52 16 99 30 105 30 35 1 36 16 10 101 -14 46 -30 93 -34 104 -11 26 -44 144
-61 215 -16 71 -16 268 0 345 19 89 51 174 87 231 36 58 132 156 147 151 10
-3 27 -52 87 -247 17 -58 38 -123 45 -145 7 -22 28 -87 45 -145 17 -58 38
-123 45 -145 13 -38 32 -100 85 -275 13 -41 34 -109 48 -150 88 -269 62 -490
-78 -676 -73 -96 -160 -155 -290 -193 -41 -12 -82 -26 -90 -30 -9 -5 -31 -12
-50 -15 -46 -10 -131 -35 -150 -45 -9 -5 -31 -12 -50 -15 -19 -4 -53 -14 -75
-21 -22 -7 -87 -27 -145 -45 -58 -17 -150 -45 -205 -61 -55 -17 -145 -44 -200
-60 -55 -17 -143 -43 -195 -59 -52 -16 -142 -43 -200 -60 -58 -17 -114 -35
-125 -39 -11 -5 -58 -19 -105 -31 -47 -13 -125 -36 -175 -52 -49 -15 -115 -35
-145 -44 -54 -17 -87 -27 -185 -57 -27 -8 -97 -29 -155 -47 -58 -17 -134 -40
-170 -52 -36 -11 -94 -28 -130 -38 -36 -10 -148 -44 -250 -75 -526 -161 -535
-163 -644 -147 -90 13 -166 39 -226 77 -22 14 -41 25 -42 25 -2 0 276 -279
617 -620 l620 -620 2252 0 2253 0 0 2303 0 2302 -1599 1600 c-880 880 -1597
1596 -1593 1590z m-2293 -1639 c74 -23 114 -71 135 -166 16 -68 49 -186 73
-260 24 -76 51 -174 108 -400 17 -69 37 -143 44 -165 13 -42 22 -73 75 -265
73 -267 107 -379 122 -397 6 -7 21 -13 34 -13 37 0 75 87 105 245 5 28 20 86
34 130 13 44 31 114 40 155 9 41 23 95 31 120 16 55 111 426 134 530 9 41 19
82 22 90 6 16 28 104 53 220 10 41 28 92 42 113 44 69 61 72 378 72 398 0 368
24 462 -365 9 -36 18 -69 22 -75 3 -5 7 -14 8 -20 1 -5 6 -26 12 -45 50 -186
76 -288 91 -360 35 -168 106 -444 127 -500 8 -19 7 -17 17 -65 9 -50 39 -148
60 -196 26 -61 64 -61 95 0 20 40 67 187 87 271 7 30 17 71 22 90 6 19 22 78
35 130 14 52 39 140 56 195 49 153 48 153 76 275 26 117 66 257 90 320 8 19
24 75 36 125 25 105 36 132 63 163 45 50 73 55 340 60 292 5 324 1 366 -38 54
-50 53 -54 -122 -590 -126 -384 -146 -447 -176 -540 -141 -446 -316 -994 -347
-1085 -8 -22 -28 -87 -45 -145 -46 -155 -81 -248 -102 -276 -11 -13 -40 -33
-65 -45 -43 -19 -60 -20 -346 -17 -325 3 -336 5 -375 58 -26 35 -65 147 -95
280 -37 156 -56 229 -78 291 -21 61 -39 126 -70 254 -11 44 -24 96 -29 115 -5
19 -12 49 -15 65 -6 33 -24 94 -65 230 -16 50 -38 131 -50 180 -23 92 -48 153
-72 173 -19 16 -53 5 -66 -21 -18 -37 -69 -207 -86 -292 -16 -74 -39 -159 -72
-261 -14 -46 -75 -292 -99 -404 -27 -121 -32 -142 -49 -205 -22 -79 -22 -77
-47 -175 -35 -139 -66 -213 -105 -251 l-35 -34 -322 0 c-351 0 -370 3 -415 59
-11 14 -48 112 -82 218 -34 106 -102 312 -150 458 -48 146 -108 330 -133 410
-25 80 -49 156 -53 170 -4 14 -8 28 -9 32 0 3 -3 10 -7 14 -5 4 -8 18 -8 30 0
13 -4 25 -9 28 -5 3 -12 21 -15 40 -4 19 -20 74 -35 123 -16 48 -57 176 -91
283 -34 107 -67 209 -74 225 -7 17 -27 77 -45 135 -19 58 -39 121 -46 140 -49
133 -77 242 -71 275 7 38 53 80 96 88 14 2 140 5 281 6 197 1 267 -2 304 -13z"/>
<path d="M5843 2391 c-94 -59 -87 -220 11 -280 42 -27 111 -27 152 -2 58 36
81 128 49 204 -33 80 -144 121 -212 78z"/>
<path d="M5140 2161 c-66 -69 -61 -164 11 -233 64 -61 145 -60 207 5 24 26 27
35 27 101 0 113 -49 166 -154 166 -50 0 -57 -3 -91 -39z"/>
<path d="M4513 1993 c-68 -14 -114 -119 -87 -197 17 -48 62 -99 82 -91 7 2 10
1 7 -5 -9 -15 59 -22 102 -11 49 13 68 34 89 93 20 61 6 116 -44 169 -30 32
-45 40 -82 43 -25 2 -55 2 -67 -1z"/>
</g>
</svg>
