<?xml version="1.0" standalone="no"?>
<!DOCTYPE svg PUBLIC "-//W3C//DTD SVG 20010904//EN"
 "http://www.w3.org/TR/2001/REC-SVG-20010904/DTD/svg10.dtd">
<svg version="1.0" xmlns="http://www.w3.org/2000/svg"
 width="204.000000pt" height="192.000000pt" viewBox="0 0 204.000000 192.000000"
 preserveAspectRatio="xMidYMid meet">

<g transform="translate(0.000000,192.000000) scale(0.100000,-0.100000)"
fill="#000000" stroke="none">
<path d="M0 960 l0 -960 1020 0 1020 0 0 960 0 960 -1020 0 -1020 0 0 -960z
m1380 445 l0 -95 -355 0 -355 0 0 95 0 95 355 0 355 0 0 -95z m-35 -435 l0
-95 -222 -3 -223 -2 0 -120 0 -120 245 0 246 0 -3 -92 -3 -93 -357 -3 -358 -2
0 315 0 315 338 -2 337 -3 0 -95z"/>
</g>
</svg>
